<svg id="svg" version="1.1" xmlns="http://www.w3.org/2000/svg" xmlns:xlink="http://www.w3.org/1999/xlink" width="400" height="400" viewBox="0, 0, 400,400"><g id="svgg"><path id="path0" d="M223.094 71.909 C 211.980 73.840,205.694 86.152,210.676 96.232 C 217.537 110.115,238.188 108.681,242.644 94.013 C 246.399 81.648,235.828 69.696,223.094 71.909 M277.893 87.631 C 266.417 104.915,248.092 115.469,230.859 114.722 C 223.123 114.387,217.605 112.454,207.813 106.650 C 189.316 95.689,161.446 95.353,140.089 105.835 C 124.063 113.700,112.913 126.535,106.863 144.081 C 105.112 149.158,105.127 149.343,106.994 145.656 C 118.621 122.697,143.949 108.017,166.944 110.911 C 199.198 114.971,209.617 146.331,192.199 186.926 C 189.793 192.534,189.691 191.147,193.131 199.657 C 194.724 203.599,195.944 206.958,195.842 207.123 C 195.740 207.287,191.932 207.433,187.379 207.446 L 179.102 207.470 175.586 211.604 C 166.852 221.876,154.071 233.982,137.389 247.783 C 132.280 252.010,128.178 255.469,128.274 255.469 C 129.069 255.469,142.940 250.047,149.037 247.352 C 173.037 236.746,196.199 220.038,208.698 204.314 L 211.324 201.012 211.424 168.377 L 211.523 135.742 218.555 135.742 L 225.586 135.742 225.686 165.098 L 225.786 194.454 228.655 195.092 C 236.997 196.948,241.304 201.423,240.441 207.338 C 239.495 213.819,232.921 225.978,225.176 235.571 L 222.670 238.675 225.483 237.258 C 237.856 231.027,251.491 219.059,256.403 210.117 C 263.744 196.756,257.508 183.580,239.701 174.822 C 232.540 171.301,231.710 169.315,233.384 159.714 C 235.709 146.385,240.033 139.272,249.609 133.022 C 266.882 121.750,276.321 107.719,279.105 89.173 C 279.791 84.600,279.853 84.679,277.893 87.631 M265.514 133.789 C 271.677 142.872,275.781 157.861,275.781 171.289 C 275.781 223.423,219.349 263.485,164.126 250.555 C 161.904 250.035,159.971 249.612,159.829 249.614 C 159.260 249.625,168.015 253.521,171.616 254.860 C 223.391 274.105,282.635 237.234,285.097 184.233 C 285.943 166.015,281.414 151.502,271.061 139.258 C 267.940 135.567,264.256 131.934,265.514 133.789 " stroke="none" fill="#f700e2" fill-rule="evenodd"></path><path id="path1" d="M151.454 136.027 C 150.905 137.406,128.475 194.437,126.324 199.922 C 124.951 203.425,123.828 206.548,123.828 206.864 C 123.828 207.354,124.992 207.422,131.736 207.332 L 139.645 207.227 140.472 205.078 C 140.927 203.896,142.045 200.864,142.958 198.340 L 144.616 193.750 159.526 193.750 L 174.435 193.750 176.964 200.582 L 179.492 207.415 187.575 207.418 C 192.020 207.420,195.740 207.287,195.842 207.123 C 195.998 206.871,191.730 195.875,189.539 190.882 C 189.176 190.056,184.043 177.312,178.131 162.561 L 167.383 135.742 159.517 135.637 C 153.443 135.555,151.607 135.644,151.454 136.027 M211.597 135.799 C 211.449 135.947,211.328 152.126,211.328 171.754 L 211.328 207.439 218.457 207.333 L 225.586 207.227 225.586 171.484 L 225.586 135.742 218.726 135.636 C 214.953 135.577,211.745 135.651,211.597 135.799 M164.605 167.664 C 167.100 174.264,169.141 179.757,169.141 179.871 C 169.141 179.985,164.815 180.078,159.529 180.078 C 152.008 180.078,149.954 179.972,150.087 179.590 C 153.461 169.935,159.589 154.391,159.801 154.952 C 159.949 155.344,162.110 161.064,164.605 167.664 M263.281 278.395 C 256.039 279.607,252.546 283.268,252.543 289.648 C 252.541 296.290,256.057 299.486,266.211 302.073 C 273.653 303.969,275.840 306.182,272.949 308.890 C 269.222 312.382,259.571 310.008,259.570 305.599 C 259.570 305.453,251.887 307.358,251.694 307.551 C 251.579 307.666,251.683 308.360,251.925 309.094 C 256.512 322.994,282.435 320.766,282.420 306.473 C 282.413 300.038,278.948 296.880,269.139 294.364 C 262.418 292.641,260.229 291.020,261.146 288.445 C 262.749 283.943,273.828 285.213,273.828 289.899 C 273.828 290.494,274.001 290.642,274.480 290.459 C 274.838 290.321,276.611 289.838,278.419 289.384 L 281.706 288.559 281.446 287.169 C 280.248 280.785,272.206 276.901,263.281 278.395 M300.586 278.374 C 293.301 279.853,289.875 283.158,289.535 289.034 C 289.140 295.862,292.782 299.471,302.609 301.988 C 309.314 303.704,310.547 304.482,310.547 306.995 C 310.547 311.244,300.210 311.948,297.325 307.895 C 296.862 307.246,296.484 306.423,296.484 306.066 C 296.484 305.627,296.262 305.485,295.801 305.627 C 295.425 305.743,293.887 306.114,292.383 306.453 C 288.447 307.338,288.280 307.406,288.290 308.132 C 288.426 318.528,310.450 322.130,317.169 312.855 C 322.750 305.150,317.713 297.173,305.451 294.297 C 299.150 292.820,296.998 291.004,298.184 288.164 C 299.912 284.028,309.393 285.091,310.368 289.530 C 310.552 290.367,310.788 290.616,311.235 290.444 C 311.573 290.315,313.331 289.837,315.142 289.383 L 318.434 288.557 318.205 287.411 C 316.943 281.100,308.497 276.768,300.586 278.374 M83.203 298.242 L 83.203 317.578 87.500 317.578 L 91.797 317.578 91.797 310.547 L 91.797 303.516 99.609 303.516 L 107.422 303.516 107.422 299.627 L 107.422 295.739 99.609 295.819 L 91.797 295.898 91.798 291.211 L 91.799 286.523 100.782 286.531 L 109.766 286.539 109.766 282.723 L 109.766 278.906 96.484 278.906 L 83.203 278.906 83.203 298.242 M117.969 298.242 L 117.969 317.578 122.070 317.578 L 126.172 317.578 126.172 298.242 L 126.172 278.906 122.070 278.906 L 117.969 278.906 117.969 298.242 M133.625 282.617 L 133.562 286.328 139.437 286.328 L 145.313 286.328 145.313 301.953 L 145.313 317.578 149.609 317.578 L 153.906 317.578 153.906 301.953 L 153.906 286.328 159.668 286.329 L 165.430 286.330 165.305 282.618 L 165.181 278.906 149.434 278.906 L 133.688 278.906 133.625 282.617 M172.656 298.242 L 172.656 317.578 176.948 317.578 L 181.239 317.578 181.342 305.501 L 181.445 293.424 190.208 305.501 L 198.970 317.578 203.196 317.578 L 207.422 317.578 207.422 298.242 L 207.422 278.906 203.125 278.906 L 198.828 278.906 198.828 291.256 L 198.828 303.605 196.582 300.493 C 195.347 298.781,191.348 293.230,187.695 288.158 L 181.055 278.935 176.855 278.921 L 172.656 278.906 172.656 298.242 M217.188 298.242 L 217.188 317.578 231.069 317.578 L 244.950 317.578 244.838 313.770 L 244.727 309.961 235.254 309.961 L 225.781 309.961 225.781 305.957 L 225.781 301.953 234.180 301.953 L 242.578 301.953 242.578 298.242 L 242.578 294.531 234.180 294.531 L 225.781 294.531 225.781 290.417 L 225.781 286.303 235.059 286.343 C 240.161 286.365,244.292 286.283,244.238 286.160 C 244.185 286.038,244.141 284.355,244.141 282.422 L 244.141 278.906 230.664 278.906 L 217.188 278.906 217.188 298.242 " stroke="none" fill="#ffffff" fill-rule="evenodd"></path><path id="path2" d="M0.000 200.000 L 0.000 400.000 200.000 400.000 L 400.000 400.000 400.000 200.000 L 400.000 0.000 200.000 0.000 L 0.000 0.000 0.000 200.000 M229.766 71.920 C 238.666 73.794,244.578 82.233,243.332 91.283 C 241.395 105.354,223.978 111.071,213.863 100.956 C 201.827 88.919,213.064 68.403,229.766 71.920 M279.512 87.402 C 277.247 106.527,267.201 121.802,249.283 133.363 C 239.731 139.527,235.176 147.527,233.174 161.659 C 232.080 169.377,232.871 171.192,238.588 174.076 C 265.840 187.826,266.500 207.028,240.429 227.584 C 235.059 231.817,224.288 238.642,222.938 238.666 C 222.770 238.669,224.023 236.870,225.722 234.668 C 234.803 222.898,240.246 212.107,240.226 205.916 C 240.206 199.862,236.613 196.861,226.855 194.749 L 225.781 194.516 225.781 200.978 L 225.781 207.439 218.457 207.333 L 211.133 207.227 211.133 204.218 C 211.133 202.563,211.036 201.333,210.917 201.484 C 210.798 201.634,209.919 202.813,208.964 204.102 C 199.245 217.214,177.134 233.859,155.273 244.520 C 146.375 248.859,126.538 256.850,127.930 255.534 C 128.145 255.331,132.539 251.666,137.695 247.391 C 156.364 231.910,166.478 222.243,177.111 209.714 L 179.310 207.123 176.847 200.534 L 174.384 193.945 159.540 193.843 L 144.695 193.741 142.391 200.190 C 141.123 203.737,139.986 206.801,139.864 206.999 C 139.604 207.419,124.466 207.816,123.824 207.419 C 123.433 207.178,128.191 194.791,148.358 143.555 L 151.433 135.742 159.452 135.637 L 167.471 135.531 178.716 163.699 L 189.962 191.867 191.869 187.490 C 209.773 146.406,199.064 114.676,166.016 110.887 C 143.649 108.323,118.439 123.236,106.995 145.801 C 105.039 149.659,104.874 149.617,106.240 145.605 C 112.806 126.315,122.782 114.459,139.509 106.063 C 162.473 94.537,189.347 95.363,210.811 108.255 C 233.015 121.593,260.837 113.090,277.630 87.835 C 279.789 84.589,279.846 84.576,279.512 87.402 M275.020 144.233 C 292.805 170.823,287.560 209.047,262.685 234.116 C 236.033 260.976,195.494 267.733,161.972 250.903 C 158.667 249.244,158.761 249.092,162.500 250.050 C 194.170 258.169,227.328 249.180,251.581 225.901 C 277.421 201.099,283.167 164.857,266.031 134.766 C 264.094 131.363,271.938 139.625,275.020 144.233 M154.982 166.649 C 152.492 173.283,150.333 179.019,150.185 179.395 C 149.934 180.034,150.534 180.078,159.570 180.078 C 168.605 180.078,169.207 180.034,168.959 179.395 C 168.814 179.019,167.129 174.580,165.215 169.531 C 163.301 164.482,161.235 159.054,160.622 157.469 L 159.509 154.586 154.982 166.649 M274.382 279.283 C 279.957 281.455,283.885 288.058,280.176 289.023 C 275.813 290.158,274.055 290.585,274.040 290.511 C 273.062 285.704,263.673 283.734,261.526 287.886 C 259.977 290.881,261.813 292.350,269.641 294.379 C 280.435 297.176,284.329 302.215,281.949 310.306 C 278.769 321.115,256.197 320.939,252.153 310.073 C 251.193 307.495,251.381 307.294,255.685 306.305 C 259.542 305.419,260.131 305.493,260.150 306.861 C 260.207 310.770,271.795 311.768,273.507 308.011 C 274.665 305.470,272.731 303.800,266.914 302.318 C 254.697 299.207,250.256 294.054,252.716 285.845 C 254.616 279.502,266.053 276.038,274.382 279.283 M310.937 279.275 C 316.716 281.611,320.517 288.076,316.699 289.077 C 315.786 289.316,314.103 289.779,312.959 290.105 C 311.815 290.431,310.843 290.637,310.799 290.563 C 310.755 290.490,310.419 289.769,310.052 288.962 C 307.953 284.343,298.047 284.668,298.047 289.356 C 298.047 291.467,299.575 292.674,303.516 293.676 C 315.904 296.825,318.955 299.388,318.937 306.632 C 318.899 321.331,290.372 322.817,288.224 308.233 C 288.106 307.434,296.004 304.812,296.256 305.566 C 298.002 310.782,308.166 312.531,310.243 307.973 C 311.400 305.434,309.595 303.956,303.320 302.305 C 292.968 299.581,289.304 296.262,289.345 289.647 C 289.401 280.650,300.795 275.177,310.937 279.275 M109.766 282.813 L 109.766 286.719 100.781 286.719 L 91.797 286.719 91.797 291.211 L 91.797 295.703 99.609 295.703 L 107.422 295.703 107.422 299.609 L 107.422 303.516 99.609 303.516 L 91.797 303.516 91.797 310.547 L 91.797 317.578 87.305 317.578 L 82.813 317.578 82.813 298.242 L 82.813 278.906 96.289 278.906 L 109.766 278.906 109.766 282.813 M126.172 298.242 L 126.172 317.578 121.875 317.578 L 117.578 317.578 117.578 298.242 L 117.578 278.906 121.875 278.906 L 126.172 278.906 126.172 298.242 M165.625 282.617 L 165.625 286.328 159.766 286.328 L 153.906 286.328 153.906 301.953 L 153.906 317.578 149.609 317.578 L 145.313 317.578 145.313 301.953 L 145.313 286.328 139.453 286.328 L 133.594 286.328 133.594 282.617 L 133.594 278.906 149.609 278.906 L 165.625 278.906 165.625 282.617 M182.464 280.793 C 183.193 281.831,187.129 287.285,191.211 292.913 L 198.633 303.145 198.736 291.026 L 198.839 278.906 203.131 278.906 L 207.422 278.906 207.422 298.255 L 207.422 317.604 203.046 317.493 L 198.670 317.383 189.960 305.335 L 181.250 293.288 181.250 305.433 L 181.250 317.578 176.953 317.578 L 172.656 317.578 172.656 298.242 L 172.656 278.906 176.898 278.906 L 181.139 278.906 182.464 280.793 M244.531 282.813 L 244.531 286.719 235.156 286.719 L 225.781 286.719 225.781 290.430 L 225.781 294.141 234.180 294.141 L 242.578 294.141 242.578 298.047 L 242.578 301.953 234.180 301.953 L 225.781 301.953 225.781 305.859 L 225.781 309.766 235.352 309.766 L 244.922 309.766 244.922 313.672 L 244.922 317.578 231.055 317.578 L 217.188 317.578 217.188 298.242 L 217.188 278.906 230.859 278.906 L 244.531 278.906 244.531 282.813 " stroke="none" fill="#000000" fill-rule="evenodd"></path><path id="path3" d="M211.066 204.492 C 211.067 205.996,211.138 206.563,211.223 205.753 C 211.307 204.943,211.306 203.712,211.219 203.019 C 211.133 202.325,211.064 202.988,211.066 204.492 M82.994 298.242 C 82.994 308.984,83.044 313.323,83.105 307.883 C 83.167 302.443,83.166 293.654,83.105 288.352 C 83.044 283.049,82.994 287.500,82.994 298.242 M117.759 298.242 C 117.759 308.984,117.810 313.323,117.871 307.883 C 117.932 302.443,117.932 293.654,117.871 288.352 C 117.809 283.049,117.759 287.500,117.759 298.242 M165.375 282.422 C 165.375 284.463,165.441 285.298,165.521 284.277 C 165.602 283.257,165.602 281.587,165.521 280.566 C 165.441 279.546,165.375 280.381,165.375 282.422 M244.281 282.422 C 244.281 284.463,244.347 285.298,244.428 284.277 C 244.508 283.257,244.508 281.587,244.428 280.566 C 244.347 279.546,244.281 280.381,244.281 282.422 M230.176 286.620 C 232.700 286.688,236.831 286.688,239.355 286.620 C 241.880 286.552,239.814 286.496,234.766 286.496 C 229.717 286.496,227.651 286.552,230.176 286.620 M229.764 294.432 C 232.061 294.501,235.928 294.501,238.357 294.432 C 240.786 294.364,238.906 294.307,234.180 294.307 C 229.453 294.307,227.466 294.363,229.764 294.432 " stroke="none" fill="#9eb3c3" fill-rule="evenodd"></path><path id="path4" d="M168.066 98.316 C 168.442 98.414,169.058 98.414,169.434 98.316 C 169.810 98.218,169.502 98.138,168.750 98.138 C 167.998 98.138,167.690 98.218,168.066 98.316 M225.098 106.139 C 225.688 106.229,226.655 106.229,227.246 106.139 C 227.837 106.050,227.354 105.976,226.172 105.976 C 224.990 105.976,224.507 106.050,225.098 106.139 M121.875 118.555 C 120.926 119.521,120.238 120.313,120.345 120.313 C 120.453 120.313,121.317 119.521,122.266 118.555 C 123.214 117.588,123.903 116.797,123.795 116.797 C 123.688 116.797,122.824 117.588,121.875 118.555 M200.519 150.586 C 200.521 152.090,200.591 152.657,200.676 151.847 C 200.760 151.036,200.759 149.806,200.673 149.112 C 200.586 148.419,200.517 149.082,200.519 150.586 M285.247 177.344 C 285.247 178.096,285.327 178.403,285.426 178.027 C 285.524 177.651,285.524 177.036,285.426 176.660 C 285.327 176.284,285.247 176.592,285.247 177.344 M285.284 181.836 C 285.286 183.340,285.357 183.907,285.441 183.097 C 285.526 182.286,285.524 181.056,285.438 180.362 C 285.352 179.669,285.283 180.332,285.284 181.836 M240.341 205.859 C 240.341 206.826,240.417 207.222,240.510 206.738 C 240.603 206.255,240.603 205.464,240.510 204.980 C 240.417 204.497,240.341 204.893,240.341 205.859 M158.764 229.004 L 157.617 230.273 158.887 229.126 C 160.070 228.057,160.336 227.734,160.034 227.734 C 159.967 227.734,159.396 228.306,158.764 229.004 M179.785 253.004 C 180.161 253.102,180.776 253.102,181.152 253.004 C 181.528 252.905,181.221 252.825,180.469 252.825 C 179.717 252.825,179.409 252.905,179.785 253.004 M189.160 253.004 C 189.536 253.102,190.151 253.102,190.527 253.004 C 190.903 252.905,190.596 252.825,189.844 252.825 C 189.092 252.825,188.784 252.905,189.160 253.004 " stroke="none" fill="#fa8367" fill-rule="evenodd"></path></g></svg>